# xmcd CD database file
#
# Track frame offsets:
#	150
#	14927
#	28985
#	41782
#	57182
#	71230
#	83150
#	97517
#	107155
#	122522
#	133407
#	147450
#	161972
#	176437
#	191005
#	205337
#	219545
#	231975
#	245605
#	255630
#	269720
#	284230
#	296592
#	311560
#	325730
#
# Disc length: 4503 seconds
#
# Revision: 0
# Processed by: cddbd v1.5.1PL2 Copyright (c) Steve Scherf et al.
# Submitted via: CDex 1.51
#
DISCID=9a119519
DTITLE=Adelaide Hall - A Centenary Celebration - CD 1
DYEAR=1900
DGENRE=Jazz
TTITLE0=Creole   Love Call
TTITLE1=The Blues I Love to Sing
TTITLE2=Chicago Stomp Down
TTITLE3=Rhapsody in Love
TTITLE4=Minnie the Moocher
TTITLE5=Doin' What I Please
TTITLE6=Too Darn Fickle
TTITLE7=I Got Rhythm
TTITLE8=Baby Mine
TTITLE9=I'm Red Hot from Harlem
TTITLE10=Strange as it seems
TTITLE11=I'll Never Be The Same
TTITLE12=You gave me everything but love
TTITLE13=This time it's love
TTITLE14=Baby!
TTITLE15=I must have that man
TTITLE16=Drop me off in Harlem
TTITLE17=Reachin' for the cotton moon
TTITLE18=Truckin'
TTITLE19=I'm in the mood for love
TTITLE20=I'm shooting high
TTITLE21=Say you're mine
TTITLE22=I can't give you anything but love
TTITLE23=That old feeling
TTITLE24=German Theatre Promotional record
EXTD=
EXTT0=
EXTT1=
EXTT2=
EXTT3=
EXTT4=
EXTT5=
EXTT6=
EXTT7=
EXTT8=
EXTT9=
EXTT10=
EXTT11=
EXTT12=
EXTT13=
EXTT14=
EXTT15=
EXTT16=
EXTT17=
EXTT18=
EXTT19=
EXTT20=
EXTT21=
EXTT22=
EXTT23=
EXTT24=
PLAYORDER=
